<?xml version="1.0" encoding="UTF-8"?>
<svg id="Layer_2" data-name="Layer 2" xmlns="http://www.w3.org/2000/svg" viewBox="0 0 128.17 128.17">
  <defs>
    <style>
      .cls-1 {
        fill: #14ff8e;
      }

      .cls-1, .cls-2, .cls-3, .cls-4, .cls-5 {
        stroke-width: 0px;
      }

      .cls-2 {
        fill: #fff;
      }

      .cls-3 {
        fill: #6714ff;
      }

      .cls-4 {
        fill: #fbff12;
      }

      .cls-5 {
        fill: #ff14fb;
      }
    </style>
  </defs>
  <g id="Layer_1-2" data-name="Layer 1">
    <g>
      <path class="cls-2" d="m117.49,0H10.68C4.79,0,0,4.79,0,10.68v106.81c0,5.9,4.79,10.67,10.68,10.68h106.81c5.9,0,10.67-4.79,10.68-10.68V10.68c0-5.9-4.79-10.67-10.68-10.68ZM4.27,10.68c0-3.54,2.87-6.41,6.41-6.41h106.81c3.54,0,6.41,2.87,6.41,6.41v6.41H4.27v-6.41Zm119.63,106.81c0,3.54-2.87,6.41-6.41,6.41H10.68c-3.54,0-6.41-2.87-6.41-6.41V21.36h119.63v96.13Z"/>
      <g>
        <path class="cls-5" d="m18.28,38.09l5.15-3.43,6.48,4.86v3.2c0,1.18.96,2.14,2.14,2.14h6.41c1.18,0,2.14-.96,2.14-2.14s-.96-2.14-2.14-2.14h-4.27v-2.14c0-.67-.32-1.31-.85-1.71l-8.54-6.41c-.72-.54-1.71-.57-2.47-.07l-6.41,4.27c-.98.65-1.25,1.98-.59,2.96.65.98,1.98,1.25,2.96.59Z"/>
        <path class="cls-5" d="m10.68,55.54c.57,0,1.11-.23,1.51-.63l10.98-10.98,1.85,2.78-3.03,3.03c-.82.85-.8,2.2.05,3.02.83.8,2.14.8,2.97,0l4.27-4.27c.72-.72.83-1.85.27-2.7l-4.27-6.41c-.35-.53-.93-.88-1.57-.94-.64-.06-1.27.17-1.72.62l-12.82,12.82c-.84.83-.85,2.18-.02,3.02.4.41.95.64,1.53.63Z"/>
        <circle class="cls-5" cx="34.18" cy="29.91" r="4.27"/>
      </g>
      <path class="cls-2" d="m49.13,34.18h2.14c1.18,0,2.14-.96,2.14-2.14s-.96-2.14-2.14-2.14h-2.14c-1.18,0-2.14.96-2.14,2.14s.96,2.14,2.14,2.14Z"/>
      <path class="cls-2" d="m57.68,34.18h19.23c1.18,0,2.14-.96,2.14-2.14s-.96-2.14-2.14-2.14h-19.23c-1.18,0-2.14.96-2.14,2.14s.96,2.14,2.14,2.14Z"/>
      <path class="cls-2" d="m49.13,40.59h2.14c1.18,0,2.14-.96,2.14-2.14s-.96-2.14-2.14-2.14h-2.14c-1.18,0-2.14.96-2.14,2.14s.96,2.14,2.14,2.14Z"/>
      <path class="cls-2" d="m57.68,40.59h14.95c1.18,0,2.14-.96,2.14-2.14s-.96-2.14-2.14-2.14h-14.95c-1.18,0-2.14.96-2.14,2.14s.96,2.14,2.14,2.14Z"/>
      <path class="cls-4" d="m85.45,34.18h2.14c1.18,0,2.14-.96,2.14-2.14s-.96-2.14-2.14-2.14h-2.14c-1.18,0-2.14.96-2.14,2.14s.96,2.14,2.14,2.14Z"/>
      <path class="cls-2" d="m93.99,34.18h19.23c1.18,0,2.14-.96,2.14-2.14s-.96-2.14-2.14-2.14h-19.23c-1.18,0-2.14.96-2.14,2.14s.96,2.14,2.14,2.14Z"/>
      <path class="cls-2" d="m85.45,40.59h23.5c1.18,0,2.14-.96,2.14-2.14s-.96-2.14-2.14-2.14h-23.5c-1.18,0-2.14.96-2.14,2.14s.96,2.14,2.14,2.14Z"/>
      <path class="cls-2" d="m40.59,76.9h-4.27v-6.41c0-1.18-.96-2.14-2.14-2.14h-8.54c-1.18,0-2.14.96-2.14,2.14v6.41h-4.27c-1.18,0-2.14.96-2.14,2.14s.96,2.14,2.14,2.14h89.72c1.18,0,2.14-.96,2.14-2.14s-.96-2.14-2.14-2.14h-4.27v-14.95c0-1.18-.96-2.14-2.14-2.14h-8.54c-1.18,0-2.14.96-2.14,2.14v14.95h-4.27v-23.5c0-1.18-.96-2.14-2.14-2.14h-8.54c-1.18,0-2.14.96-2.14,2.14v23.5h-4.27v-14.95c0-1.18-.96-2.14-2.14-2.14h-8.54c-1.18,0-2.14.96-2.14,2.14v14.95h-4.27v-19.23c0-1.18-.96-2.14-2.14-2.14h-8.54c-1.18,0-2.14.96-2.14,2.14v19.23Zm-12.82,0v-4.27h4.27v4.27h-4.27Zm68.36-12.82h4.27v12.82h-4.27v-12.82Zm-17.09-8.54h4.27v21.36h-4.27v-21.36Zm-17.09,8.54h4.27v12.82h-4.27v-12.82Zm-17.09-4.27h4.27v17.09h-4.27v-17.09Z"/>
      <path class="cls-1" d="m113.22,115.36H17.09v-6.41h8.54c.57,0,1.11-.23,1.51-.63l8.12-8.12,3.28,11.46c.32,1.13,1.51,1.79,2.64,1.47.3-.08.57-.23.8-.43l12.88-11.04,3.05,6.1c.36.72,1.1,1.18,1.91,1.19h8.04l8.09,4.06c.87.43,1.92.23,2.56-.51l13.03-14.88,4.9,8.17c.39.64,1.08,1.02,1.82,1.03h8.54c1.18,0,2.14-.96,2.14-2.14s-.96-2.14-2.14-2.14h-7.34l-5.79-9.65c-.61-1.01-1.92-1.34-2.93-.73-.19.11-.36.26-.51.42l-13.87,15.85-7.07-3.54c-.3-.15-.62-.22-.95-.22h-7.22l-3.67-7.36c-.53-1.06-1.81-1.48-2.87-.96-.16.08-.3.18-.44.29l-12.42,10.65-3.36-11.75c-.32-1.13-1.51-1.79-2.64-1.47-.35.1-.67.29-.92.54l-10.07,10.06h-7.66v-12.82c0-1.18-.96-2.14-2.14-2.14s-2.14.96-2.14,2.14v25.63c0,1.18.96,2.14,2.14,2.14h98.27c1.18,0,2.14-.96,2.14-2.14s-.96-2.14-2.14-2.14Z"/>
      <path class="cls-3" d="m12.82,8.54h-2.14c-1.18,0-2.14.96-2.14,2.14s.96,2.14,2.14,2.14h2.14c1.18,0,2.14-.96,2.14-2.14s-.96-2.14-2.14-2.14Z"/>
      <path class="cls-3" d="m21.36,8.54h-2.14c-1.18,0-2.14.96-2.14,2.14s.96,2.14,2.14,2.14h2.14c1.18,0,2.14-.96,2.14-2.14s-.96-2.14-2.14-2.14Z"/>
      <path class="cls-3" d="m29.91,8.54h-2.14c-1.18,0-2.14.96-2.14,2.14s.96,2.14,2.14,2.14h2.14c1.18,0,2.14-.96,2.14-2.14s-.96-2.14-2.14-2.14Z"/>
    </g>
  </g>
</svg>